<svg id="SvgjsSvg1006" xmlns="http://www.w3.org/2000/svg" viewBox="0 0 4729.25 454.42"><defs><style>.cls-1{fill:#fff;} path {fill:#fff;}</style></defs><title>Original_2_Color Edited</title><g id="SvgjsG1009"><path class="cls-1" d="M463.58,763.38A111.84,111.84,0,1,0,254.18,818h0l97.61,171.17L449.34,818h-0.09A110.9,110.9,0,0,0,463.58,763.38Zm-170.89,0A59.07,59.07,0,1,1,374.28,818h0a60,60,0,0,1-10.88,3.31c-0.19,0-.37,0-0.61.09-1.68.33-3.41,0.61-5.13,0.79-2,.19-3.92.28-5.93,0.28s-4-.09-5.93-0.28c-1.73-.19-3.45-0.47-5.13-0.79-0.19,0-.37,0-0.56-0.09A57.49,57.49,0,0,1,329.24,818h0A59.06,59.06,0,0,1,292.69,763.38Z" transform="translate(-130.81 -651.53)"/><path class="cls-1" d="M390,949.86l-4.85,7.56c50.37,2.71,85.1,17.18,85.1,29.36,0,14.24-51.25,25.81-114.46,25.81S241.3,1001.07,241.3,986.78c0-11.62,31.32-25.86,78.19-29.08l-4.57-7.33c-64.23,5.6-111.42,24-111.42,45.84,0,26.28,68.15,47.61,152.22,47.61s152.22-21.29,152.22-47.61C508,973.62,457.56,954.71,390,949.86Z" transform="translate(-130.81 -651.53)"/><path class="cls-1" d="M403.65,928.53l-5.23,8.12c82.25,5.6,138.59,38,138.59,66.47,0,32.72-81.18,59.24-181.3,59.24s-181.3-26.51-181.3-59.24c0-27.77,53.82-58.68,132.8-65.07l-5.6-9c-98.07,9.66-170.8,45-170.8,87.1,0,49.57,100.69,89.76,224.85,89.76s224.9-40.19,224.9-89.76C580.61,973.2,504.85,937.3,403.65,928.53Z" transform="translate(-130.81 -651.53)"/></g><g id="SvgjsG1011"><path d="M970.43,978.32h4.82v3H910v-2.74h4.49a11.24,11.24,0,0,0,8.73-4h0a11,11,0,0,0,3-8.89h0L912.75,814.76,849.67,955h0c-5.65,12.13-9.06,22.36-10.22,30.58h-3L759.58,818.92l-13,146.77h0a10.78,10.78,0,0,0,3,8.89h0a11.07,11.07,0,0,0,8.39,4h4.74v2.74H704.64v-3h4.82A22.23,22.23,0,0,0,724,973.17h0a20.4,20.4,0,0,0,7.31-13.8h0l22.52-192.48h3l83.86,181,82-181h2.66l23.1,192.48h0c1,8,5,13.63,12.05,16.79h0A21.36,21.36,0,0,0,970.43,978.32Zm25.85,0h4.16a17.5,17.5,0,0,0,12.22-4.65h0a16,16,0,0,0,5.24-11.22h0V819.83h0a14.06,14.06,0,0,0-5.07-11.05h0a18.17,18.17,0,0,0-12.38-4.49h-4.16v-3H1084a111.53,111.53,0,0,0,21.61-1.83h0c6.23-1.25,10.22-2.24,12.05-3h0v34.16l-3.32-.25V825.9h0a15.41,15.41,0,0,0-4.16-10.8h0a14,14,0,0,0-10.8-4.49h-62.42V886.9h51.28c4,0,7.06-1.25,9.14-3.66h0a13.29,13.29,0,0,0,3.16-9h0v-3.82h3.24V912.5h-3.24v-3.91h0c0-5.65-2.08-9.39-6.32-11.39h0a20.48,20.48,0,0,0-5.07-1.16h-52.19v76.21H1084c9.14,0,17-1.58,23.27-4.82h0a41.81,41.81,0,0,0,14.46-11.3h0a103.92,103.92,0,0,0,10-17.45h3l-16.54,43H996.27v-3.32Zm298.45-168.46h-54.35V962.37h0c0.25,6.15,3.24,10.72,9,13.8h0a18.1,18.1,0,0,0,8.73,2.16h3.24v3h-61.83v-3H1203a17.46,17.46,0,0,0,12.38-4.82h0a16.14,16.14,0,0,0,5.32-11.39h0V809.94h-54.27q-7,0-11,4.49h0a15.8,15.8,0,0,0-4,10.8h0V830h-3.32V796.06h0c4,1.58,9.64,2.83,17,3.66h0c7.31,0.75,12.72,1.16,16.37,1.16h97.82c14.46,0,25.68-1.58,33.66-4.82h0V830h-3.32v-4.74h0a15.41,15.41,0,0,0-4.16-10.8h0a14.68,14.68,0,0,0-10.89-4.57h0Zm95.16,0.66h-16V962.12h0a16.23,16.23,0,0,0,8.39,14.13h0a18.1,18.1,0,0,0,8.73,2.16h3.82l0.33,3h-61.58v-3h4.16a17.19,17.19,0,0,0,12-4.65h0a15.05,15.05,0,0,0,4.9-11.22h0V819.92h0a14.45,14.45,0,0,0-4.9-11.05h0a17.27,17.27,0,0,0-12-4.49h-4.16v-3H1409q28.17,0,44.55,12.88h0q16.33,13,16.37,33.91h0c0,14-4.4,25.68-13.21,35.07h0q-13.21,14.21-33.58,16.29h0c6.4,2.74,14.13,10.55,23.1,23.44h0c-0.25,0,3.24,4.4,10.31,13.21h0c7.15,8.81,12.8,15.62,17.12,20.61h0c4.32,4.9,7.9,8.64,10.64,11.22h0c7.4,7,15.87,10.47,25.51,10.47h0v3h-9.23c-15.87,0-28.26-3.08-37.32-9.31h0a90.08,90.08,0,0,1-18.62-17.12h0q-1.87-2.37-15.21-21.19h0c-8.89-12.55-13.63-19.12-14.29-19.95h0q-16.21-20.2-30.25-20.2h0v-3h0c23.44,0,37.48-1.16,42.3-3.57h0c6.65-3.41,11.14-7,13.55-10.72h0a48.88,48.88,0,0,0,7.48-26.43h0c0-12.22-3.57-21.69-10.72-28.26h0q-10.85-9.85-29.17-10.72h0C1403.1,810.61,1396.86,810.52,1389.88,810.52Zm170.54-1.75h0q23.06-11.84,50.86-11.8h0q27.8,0,50.86,11.8h0A93,93,0,0,1,1699,842.27h0c9.14,14.38,13.71,30.75,13.71,49h0q0,27.3-13.71,48.87h0a91.84,91.84,0,0,1-36.82,33.49h0a102.5,102.5,0,0,1-47.37,11.8h0c-16.21,0-30.58-2.33-43-6.9h0a99.25,99.25,0,0,1-32.25-19.2h0a88.75,88.75,0,0,1-21.61-30h0q-8-17.7-8-41.64h0c0-15.87,4.57-31.08,13.71-45.46h0A94.41,94.41,0,0,1,1560.42,808.78Zm-5.57,143.86h0q22.69,23.81,56.27,23.85h0c22.44,0,41.31-8,56.43-23.85h0q22.81-23.81,22.86-61.34h0c0-25-7.65-45.54-22.86-61.42h0q-22.81-23.81-56.43-23.85h0c-22.44,0-41.14,8-56.27,23.85h0q-22.56,23.94-22.61,61.42h0Q1532.25,928.83,1554.85,952.64Zm472.81-181.43v3h-2.74c-6.81,0-13,2.66-18.62,8.06h0a27.45,27.45,0,0,0-7.48,10.47h0l-72.39,161.82h0c-7.4,16.21-11.05,26.51-11.05,30.92h-2.66l-84.44-192.4h0a31.29,31.29,0,0,0-11.47-14.29h0a28,28,0,0,0-15-4.57h-2.33v-3h67.57v3h-2.74c-6,0-10,2.74-12.05,8.31h0a13.41,13.41,0,0,0-.58,4.24h0a16.43,16.43,0,0,0,1.5,6h0L1916,950l65.49-157.24h0a21.47,21.47,0,0,0,1.25-7.06h0c0-2.24-1.08-4.82-3.16-7.48h0c-2.08-2.66-5.32-4-9.47-4h-2.66v-3h60.25Zm148.68,207.11h2.33v3h-61.58v-3h2.41c3.82,0,6.73-1.33,8.73-3.91h0c2-2.58,3-5.07,3-7.31h0a18.59,18.59,0,0,0-1.25-6.73h0l-16.54-40h-76l-16.54,39.06h0a20.52,20.52,0,0,0-1.5,7.31h0a12.93,12.93,0,0,0,3,7.48h0c2,2.74,5,4.07,9,4.07h2.41v3h-57.26v-3h2.33c4.24,0,8.48-1.5,12.8-4.4h0a31.34,31.34,0,0,0,10.64-13h0q65.82-140.5,68.48-147.1h0c3.41-8.39,5.24-14,5.4-16.87h2.66l74.13,164h0C2159,972.51,2166.71,978.32,2176.35,978.32ZM2076.29,829.06l-34.91,82.28h68.48Zm324.29-24.85h-5.07a16.09,16.09,0,0,0-11.39,4.32h0a14.59,14.59,0,0,0-5.07,10.64h0V947h0a244.89,244.89,0,0,0,2.08,33h0l0.58,5.4h-2.66l-156.16-148V962.7h0a14.64,14.64,0,0,0,4.74,11.14h0a16.72,16.72,0,0,0,11.8,4.49h5.07v3h-56.76v-3h5.15a16.66,16.66,0,0,0,11.72-4.49h0a14.55,14.55,0,0,0,4.82-11.14h0V834.29h0a226,226,0,0,0-2.16-32.75h0l-0.58-4.74,3.32,0.25,155.83,146.86V819.33h0a15.61,15.61,0,0,0-5.4-10.64h0a16.17,16.17,0,0,0-11.3-4.32H2344v-3h56.76v2.83h-0.17Zm161.57,5.65h-54.35V962.37h0c0.25,6.15,3.24,10.72,9,13.8h0a17.78,17.78,0,0,0,8.64,2.16h3.32v3h-61.92v-3h3.66a17.13,17.13,0,0,0,12.3-4.82h0a16.24,16.24,0,0,0,5.4-11.39h0V809.94h-54.35c-4.57,0-8.23,1.5-10.89,4.49h0a15.49,15.49,0,0,0-4.07,10.8h0V830h-3.24V796.06h0c4,1.58,9.64,2.83,17,3.66h0c7.31,0.75,12.8,1.16,16.37,1.16h97.9c14.38,0,25.6-1.58,33.58-4.82h0V830h-3.24v-4.74h0a15.13,15.13,0,0,0-4.24-10.8h0a14.24,14.24,0,0,0-10.8-4.57h0Zm199.71,168.46h2.33v3H2702.6v-3H2705c3.82,0,6.73-1.33,8.73-3.91h0c2-2.58,3-5.07,3-7.31h0a18.59,18.59,0,0,0-1.25-6.73h0l-16.54-40h-76l-16.54,39.06h0a20.52,20.52,0,0,0-1.5,7.31h0a12.93,12.93,0,0,0,3,7.48h0c2,2.74,5,4.07,9,4.07h2.41v3h-57.18v-3h2.33c4.24,0,8.48-1.5,12.8-4.4h0a31.34,31.34,0,0,0,10.64-13h0q65.82-140.5,68.48-147.1h0c3.41-8.39,5.24-14,5.4-16.87h2.66l74.13,164h0C2744.49,972.51,2752.22,978.32,2761.86,978.32Zm-100-149.27L2627,911.34h68.48Zm209.85,156.5h0q-44.75-.37-71.56-25.68h0q-26.93-25.31-26.93-68.73h0q0-43.38,26.93-68.82h0Q2827,797,2869.49,797h0q42.51,0,72.22,18h0l6.57,42.64h-2.66q-6.36-26.3-24.52-39.06h0Q2903,806,2869.82,806h0q-33.16,0-54,23h0q-20.82,22.94-20.86,62.33h0q0,39.27,21,62.33h0c14,15.29,33.33,22.94,58.09,22.94h0q37.15,0,63.83-26.1h0l0.33-40h0a10,10,0,0,0-3.49-8.56h0c-2.49-2.08-6-3.08-10.31-3.08h-4.16v-3h54.94v3H2971c-9,0-13.55,4-13.55,12h0v36h0q-12.59,15.58-34.74,27.09h0q-22.19,11.59-50.95,11.64h0Zm121.34-7.23h4.16a17.5,17.5,0,0,0,12.22-4.65h0a16,16,0,0,0,5.24-11.22h0V819.83h0a14.06,14.06,0,0,0-5.07-11.05h0a18.17,18.17,0,0,0-12.38-4.49h-4.16v-3h87.68a111.53,111.53,0,0,0,21.61-1.83h0c6.23-1.25,10.22-2.24,12.05-3h0v34.16l-3.32-.25V825.9h0a15.41,15.41,0,0,0-4.16-10.8h0a14,14,0,0,0-10.8-4.49h-62.42V886.9H3085c4,0,7.06-1.25,9.14-3.66h0a13.29,13.29,0,0,0,3.16-9h0v-3.82h3.24V912.5h-3.24v-3.91h0c0-5.65-2.08-9.39-6.32-11.39h0a20.48,20.48,0,0,0-5.07-1.16h-52.19v76.21h47.12c9.14,0,17-1.58,23.27-4.82h0a41.81,41.81,0,0,0,14.46-11.3h0a103.93,103.93,0,0,0,10-17.45h3l-16.54,43H2993.15v-3.32h-0.08ZM3373.8,829.06h0a57.54,57.54,0,0,1-5.32,24.68h0c-6.65,14.21-18.2,24.1-34.91,29.67h0a47.46,47.46,0,0,1-15,3h0c-12.38,0-23.1-2.33-32.08-6.9h0v-3h0q21.94,4.86,40.56-4.74h0c11-5.65,18.53-14.88,22.52-27.68h0a40.73,40.73,0,0,0,1.75-11.3h0v-6.65h0c-0.42-14-4.07-25.18-11.05-33.41h0q-10.47-12.47-29.42-12.47h-34.49V959.46h0a19.65,19.65,0,0,0,5.9,13.38h0a18,18,0,0,0,13.38,5.57h3.91v3h-65.82v-3h3.91a18.14,18.14,0,0,0,13.38-5.57h0a19,19,0,0,0,5.82-13.38h0V791.57h0a19.58,19.58,0,0,0-6.23-12.47h0a18.65,18.65,0,0,0-13-4.9H3234l-0.33-3H3312c19.2,0,34.24,5.15,45.29,15.46h0C3368.23,796.89,3373.8,811.11,3373.8,829.06Zm84.69-18.53h-16V962.12h0c0.17,6.23,3,10.89,8.39,14.13h0a17.78,17.78,0,0,0,8.64,2.16h3.91l0.25,3h-61.58v-3h4.24a16.85,16.85,0,0,0,11.88-4.65h0a15.05,15.05,0,0,0,4.9-11.22h0V819.92h0a14.45,14.45,0,0,0-4.9-11.05h0a16.93,16.93,0,0,0-11.88-4.49h-4.24v-3h75.38q28.17,0,44.63,12.88h0q16.33,13,16.37,33.91h0c0,14-4.4,25.68-13.3,35.07h0c-8.81,9.47-20,14.88-33.58,16.29h0c6.4,2.74,14.13,10.55,23.1,23.44h0c-0.17,0,3.32,4.4,10.39,13.21h0c7.06,8.81,12.8,15.62,17.12,20.61h0A151.93,151.93,0,0,0,3552.9,968h0c7.4,7,15.87,10.47,25.51,10.47h0v3h-9.31c-15.79,0-28.17-3.08-37.23-9.31h0a90.47,90.47,0,0,1-18.7-17.12h0c-1.16-1.58-6.23-8.64-15.13-21.19h0c-9-12.55-13.71-19.12-14.29-19.95h0q-16.21-20.2-30.34-20.2h0v-3h0c23.44,0,37.57-1.16,42.39-3.57h0c6.57-3.41,11.05-7,13.55-10.72h0a48.88,48.88,0,0,0,7.48-26.43h0c0-12.22-3.57-21.69-10.8-28.26h0c-7.23-6.57-17-10.14-29.09-10.72h0C3471.7,810.61,3465.55,810.52,3458.49,810.52ZM3629,808.78h0q23.19-11.84,50.95-11.8h0q27.8,0,50.86,11.8h0a94.16,94.16,0,0,1,36.82,33.49h0c9.14,14.38,13.71,30.75,13.71,49h0q0,27.3-13.71,48.87h0a92.38,92.38,0,0,1-36.82,33.49h0a102.83,102.83,0,0,1-47.46,11.8h0c-16.21,0-30.58-2.33-43-6.9h0a99.25,99.25,0,0,1-32.25-19.2h0a88.75,88.75,0,0,1-21.61-30h0c-5.32-11.8-7.9-25.68-7.9-41.64h0c0-15.87,4.57-31.08,13.63-45.46h0A93.84,93.84,0,0,1,3629,808.78Zm-5.57,143.86h0q22.69,23.81,56.27,23.85h0q33.66,0,56.43-23.85h0q22.81-23.81,22.77-61.34h0c0-25-7.56-45.54-22.77-61.42h0C3720.95,814,3702.08,806,3679.73,806h0c-22.44,0-41.14,8-56.27,23.85h0q-22.69,23.94-22.69,61.42h0Q3600.77,928.83,3623.46,952.64ZM3860.24,899v-3h0a48.86,48.86,0,0,0,12.72,1.83h0c3.74,0,6.9-.08,9.23-0.33h0a66.27,66.27,0,0,0,10.22-1.91h0a38.2,38.2,0,0,0,12.05-5.24h0c8.39-5.24,14.63-13.46,18.62-24.6h0c1.41-4,2.08-9.39,2.08-16.29h0c0-12.13-4.24-21.77-12.63-28.76h0q-12.59-10.47-34.91-10.47h-29.09V962.12h0c0.25,6.4,3.08,11.05,8.64,14.13h0a18.1,18.1,0,0,0,8.73,2.16H3870v3H3808v-3h4.16a17.36,17.36,0,0,0,12.22-4.65h0a15.71,15.71,0,0,0,5.24-11.22h0V820.16h0a15.32,15.32,0,0,0-5.24-11.3h0a17.32,17.32,0,0,0-12.22-4.49H3808v-3h70.23q31.54,0,50,13.8h0q18.45,13.84,18.45,37.32h0c0,11.14-2.58,20.94-7.73,29.34h0q-15.33,24.68-47.46,24.68h0a76.6,76.6,0,0,1-31.25-7.48h0Zm113.86,79.29h4.16a17.36,17.36,0,0,0,12.22-4.65h0a16,16,0,0,0,5.24-11.22h0V819.83h0a14.06,14.06,0,0,0-5.07-11.05h0a18,18,0,0,0-12.38-4.49h-4.16v-3h87.68a110.35,110.35,0,0,0,21.61-1.83h0c6.23-1.25,10.22-2.24,12.05-3h0v34.16l-3.24-.25V825.9h0a15.13,15.13,0,0,0-4.24-10.8h0a14,14,0,0,0-10.72-4.49h-62.5V886.9H4066c4,0,7.06-1.25,9.14-3.66h0a13.29,13.29,0,0,0,3.16-9h0v-3.82h3.32V912.5h-3.32v-3.91h0c0-5.65-2.08-9.39-6.32-11.39h0a19.65,19.65,0,0,0-5.07-1.16h-52.19v76.21h47.12c9.23,0,17-1.58,23.27-4.82h0a41.81,41.81,0,0,0,14.46-11.3h0a103.91,103.91,0,0,0,10-17.45h3l-16.54,43H3974.18v-3.32h-0.08Zm217.08-167.8h-16V962.12h0c0.17,6.23,3,10.89,8.39,14.13h0a17.78,17.78,0,0,0,8.64,2.16h3.91l0.25,3h-61.58v-3h4.24a16.85,16.85,0,0,0,11.88-4.65h0a15.05,15.05,0,0,0,4.9-11.22h0V819.92h0a14.45,14.45,0,0,0-4.9-11.05h0a16.93,16.93,0,0,0-11.88-4.49h-4.24v-3h75.38q28.17,0,44.63,12.88h0q16.33,13,16.37,33.91h0c0,14-4.4,25.68-13.3,35.07h0c-8.81,9.47-20,14.88-33.58,16.29h0c6.4,2.74,14.13,10.55,23.1,23.44h0c-0.17,0,3.32,4.4,10.39,13.21h0c7.06,8.81,12.8,15.62,17.12,20.61h0A152,152,0,0,0,4285.6,968h0c7.4,7,15.87,10.47,25.51,10.47h0v3h-9.31c-15.79,0-28.17-3.08-37.23-9.31h0a90.46,90.46,0,0,1-18.7-17.12h0c-1.16-1.58-6.23-8.64-15.13-21.19h0c-9-12.55-13.71-19.12-14.3-19.95h0q-16.21-20.2-30.34-20.2h0v-3h0c23.44,0,37.57-1.16,42.39-3.57h0c6.57-3.41,11.05-7,13.55-10.72h0a48.88,48.88,0,0,0,7.48-26.43h0c0-12.22-3.57-21.69-10.8-28.26h0c-7.23-6.57-17-10.14-29.09-10.72h0C4204.4,810.61,4198.17,810.52,4191.19,810.52Zm259.05-.66H4396V962.37h0c0.17,6.15,3.16,10.72,9,13.8h0a17.78,17.78,0,0,0,8.64,2.16h3.32v3H4355v-3h3.57A17.32,17.32,0,0,0,4371,973.5h0a16.24,16.24,0,0,0,5.4-11.39h0V809.94H4322c-4.65,0-8.23,1.5-10.89,4.49h0a15.49,15.49,0,0,0-4.07,10.8h0V830h-3.24V796.06h0c4,1.58,9.64,2.83,17,3.66h0c7.31,0.75,12.72,1.16,16.37,1.16H4435c14.38,0,25.6-1.58,33.58-4.82h0V830h-3.32v-4.74h0a15.42,15.42,0,0,0-4.16-10.8h0a14.29,14.29,0,0,0-10.89-4.57h0Zm39.06,168.46h4.24a21.9,21.9,0,0,0,14.13-4.82h0c4-3.24,6-7.06,6-11.39h0V820.41h0c0-4.4-2-8.23-6-11.39h0a22.58,22.58,0,0,0-14.46-4.74h-3.91v-3h67.9v3h-3.91a22.29,22.29,0,0,0-14,4.49h0a15.53,15.53,0,0,0-6.48,11.05h0V962.45h0c0.25,4.4,2.33,8.14,6.32,11.22h0a22.56,22.56,0,0,0,14.13,4.65h3.91l0.33,3H4489.3v-3h0Zm100.9,0h4.16a17.36,17.36,0,0,0,12.22-4.65h0a15.71,15.71,0,0,0,5.24-11.22h0V819.83h0a14.06,14.06,0,0,0-5.07-11.05h0a18,18,0,0,0-12.38-4.49h-4.16v-3h87.68a110.35,110.35,0,0,0,21.61-1.83h0c6.23-1.25,10.22-2.24,12.05-3h0v34.16l-3.24-.25V825.9h0a15.13,15.13,0,0,0-4.24-10.8h0a14,14,0,0,0-10.72-4.49h-62.58V886.9h51.36c4,0,7.06-1.25,9.06-3.66h0a13.29,13.29,0,0,0,3.16-9h0v-3.82h3.32V912.5h-3.32v-3.91h0c0-5.65-2.08-9.39-6.23-11.39h0a20.29,20.29,0,0,0-5.15-1.16h-52.19v76.21h47.12c9.23,0,17-1.58,23.27-4.82h0c6.32-3.16,11.14-7,14.46-11.3h0a109.71,109.71,0,0,0,10.06-17.45h3l-16.54,43H4590.2v-3.32Zm164.81-6.9h0c-0.58-2.41-.83-7.31-0.83-14.79h0a70.06,70.06,0,0,1,3.82-22.52h3.66a40.12,40.12,0,0,0-.33,5.4h0c0,10.8,3.57,19.7,10.64,26.6h0c7.15,6.9,17,10.31,29.5,10.31h0c13.21,0,23.52-3.08,30.92-9.14h0a29.38,29.38,0,0,0,11.05-23.69h0a31.08,31.08,0,0,0-10.72-24.18h0l-60.09-46.21h0c-9.64-8.23-14.46-19.2-14.46-33h0a39.62,39.62,0,0,1,6.4-21.69h0a46.54,46.54,0,0,1,18-15.79h0c7.73-3.91,16.79-5.82,27.18-5.82h0a124.48,124.48,0,0,1,27.59,2.74h9.89l0.58,32.66h-3.24c0-8.39-2.91-14.88-8.73-19.53h0c-5.82-4.65-14-6.9-24.85-6.9h0c-10.8,0-19.78,2.74-26.76,8.23h0a26,26,0,0,0-10.47,21.36h0c0,8.64,3.91,16.21,11.8,22.69h0l60.67,46.79h0c9.14,7.65,13.8,18.2,13.8,31.83h0q0,20.45-15.46,34.49h0q-15.46,14.09-37.73,14.13h0a122.81,122.81,0,0,1-29.42-3.57h0C4767.8,979.57,4760.24,976.08,4755,971.43Z" transform="translate(-130.81 -651.53)"/></g></svg>